<svg xmlns="http://www.w3.org/2000/svg" version="1.1" viewBox="0 0 1056 2157" width="1056" height="2157"><defs></defs><g><g class="cluster" data-entity="User Space" data-qualified-name="User Space" id="ent0002" data-source-line="3"><path d="M160.50,6.50 L245.50,6.50 A3.75,3.75 0 0 1 248,9 L255,30.50 L1023.50,30.50 A2.50,2.50 0 0 1 1026,33 L1026,189 A2.50,2.50 0 0 1 1023.50,191.50 L160.50,191.50 A2.50,2.50 0 0 1 158,189 L158,9 A2.50,2.50 0 0 1 160.50,6.50" fill="#00000000" stroke="#000000" stroke-width="1.50"></path><line x1="158" y1="30.50" x2="255" y2="30.50" stroke="#000000" stroke-width="1.50"></line><text x="162" y="22.50" font-size="14" fill="#000000" xml:space="preserve" style="white-space: pre" font-weight="bold" font-family="sans-serif">User Space</text></g><g class="cluster" data-entity="Kernel Space" data-qualified-name="Kernel Space" id="ent0004" data-source-line="11"><path d="M139.50,242.50 L241.30,242.50 A3.75,3.75 0 0 1 243.80,245 L250.80,266.50 L1044.50,266.50 A2.50,2.50 0 0 1 1047,269 L1047,657 A2.50,2.50 0 0 1 1044.50,659.50 L139.50,659.50 A2.50,2.50 0 0 1 137,657 L137,245 A2.50,2.50 0 0 1 139.50,242.50" fill="#00000000" stroke="#000000" stroke-width="1.50"></path><line x1="137" y1="266.50" x2="250.80" y2="266.50" stroke="#000000" stroke-width="1.50"></line><text x="141" y="258.50" font-size="14" fill="#000000" xml:space="preserve" style="white-space: pre" font-weight="bold" font-family="sans-serif">Kernel Space</text></g><g class="cluster" data-entity="Subsystems" data-qualified-name="Subsystems" id="ent0006" data-source-line="31"><path d="M8.50,710.50 L93.50,710.50 A3.75,3.75 0 0 1 96,713 L103,734.50 L766.50,734.50 A2.50,2.50 0 0 1 769,737 L769,1368 A2.50,2.50 0 0 1 766.50,1370.50 L8.50,1370.50 A2.50,2.50 0 0 1 6,1368 L6,713 A2.50,2.50 0 0 1 8.50,710.50" fill="#00000000" stroke="#000000" stroke-width="1.50"></path><line x1="6" y1="734.50" x2="103" y2="734.50" stroke="#000000" stroke-width="1.50"></line><text x="10" y="726.50" font-size="14" fill="#000000" xml:space="preserve" style="white-space: pre" font-weight="bold" font-family="sans-serif">Subsystems</text></g><g class="cluster" data-entity="Low-Level Structures" data-qualified-name="Low-Level Structures" id="ent0010" data-source-line="73"><path d="M74.50,1421.50 L243.50,1421.50 A3.75,3.75 0 0 1 246,1424 L253,1445.50 L774.50,1445.50 A2.50,2.50 0 0 1 777,1448 L777,2145 A2.50,2.50 0 0 1 774.50,2147.50 L74.50,2147.50 A2.50,2.50 0 0 1 72,2145 L72,1424 A2.50,2.50 0 0 1 74.50,1421.50" fill="#00000000" stroke="#000000" stroke-width="1.50"></path><line x1="72" y1="1445.50" x2="253" y2="1445.50" stroke="#000000" stroke-width="1.50"></line><text x="76" y="1437.50" font-size="14" fill="#000000" xml:space="preserve" style="white-space: pre" font-weight="bold" font-family="sans-serif">Low-Level Structures</text></g><g class="entity" data-entity="uthread" data-qualified-name="User Space.uthread" id="ent0003" data-source-line="4"><rect x="174.40" y="43.50" width="835.20" height="132" rx="2.50" ry="2.50" fill="#F1F1F1" stroke="#181818" stroke-width="0.50"></rect><circle cx="558.35" cy="65.50" r="11" fill="#ADD1B2" stroke="#181818" stroke-width="1"></circle><text x="558.35" y="65.50" font-family="monospace" font-size="17" fill="#000000" text-anchor="middle" dominant-baseline="central">C</text><text x="579.45" y="60.50" font-size="12" fill="#000000" xml:space="preserve" style="white-space: pre" font-style="italic" font-family="sans-serif">«Facade»</text><text x="578.85" y="78.50" font-size="14" fill="#000000" xml:space="preserve" style="white-space: pre" font-family="sans-serif">uthread</text><line x1="175.40" y1="87.50" x2="1008.60" y2="87.50" stroke="#181818" stroke-width="0.50"></line><line x1="175.40" y1="95.50" x2="1008.60" y2="95.50" stroke="#181818" stroke-width="0.50"></line><text x="180.40" y="113.50" font-size="14" fill="#000000" xml:space="preserve" style="white-space: pre" font-family="sans-serif">+uthread() «constructor»</text><text x="180.40" y="131.50" font-size="14" fill="#000000" xml:space="preserve" style="white-space: pre" font-family="sans-serif">+create(newthread : uthread_t*, start_routine : void *(*start_routine)(void *), arg : void*) : int</text><text x="180.40" y="149.50" font-size="14" fill="#000000" xml:space="preserve" style="white-space: pre" font-family="sans-serif">+join(th : uthread_t, thread_return : void**) : int</text><text x="180.40" y="167.50" font-size="14" fill="#000000" xml:space="preserve" style="white-space: pre" font-family="sans-serif">+self() : uthread_t</text></g><g class="entity" data-entity="Kernel" data-qualified-name="Kernel Space.Kernel" id="ent0005" data-source-line="12"><rect x="153.40" y="279.50" width="877.20" height="364" rx="2.50" ry="2.50" fill="#F1F1F1" stroke="#181818" stroke-width="0.50"></rect><circle cx="550.15" cy="309.50" r="11" fill="#ADD1B2" stroke="#181818" stroke-width="1"></circle><text x="550.15" y="309.50" font-family="monospace" font-size="17" fill="#000000" text-anchor="middle" dominant-baseline="central">C</text><text x="568.65" y="296.50" font-size="12" fill="#000000" xml:space="preserve" style="white-space: pre" font-style="italic" font-family="sans-serif">«Singleton»</text><text x="575.85" y="312.50" font-size="12" fill="#000000" xml:space="preserve" style="white-space: pre" font-style="italic" font-family="sans-serif">«Monitor»</text><text x="583.05" y="330.50" font-size="14" fill="#000000" xml:space="preserve" style="white-space: pre" font-family="sans-serif">Kernel</text><line x1="154.40" y1="339.50" x2="1029.60" y2="339.50" stroke="#181818" stroke-width="0.50"></line><text x="159.40" y="357.50" font-size="14" fill="#000000" xml:space="preserve" style="white-space: pre" text-decoration="underline" font-family="sans-serif">-KernelPtr : Kernel*</text><text x="159.40" y="375.50" font-size="14" fill="#000000" xml:space="preserve" style="white-space: pre" font-family="sans-serif">-scheduler : Scheduler*</text><text x="159.40" y="393.50" font-size="14" fill="#000000" xml:space="preserve" style="white-space: pre" font-family="sans-serif">-Sema_Vector : vector&lt;Semaphore *&gt;</text><text x="159.40" y="411.50" font-size="14" fill="#000000" xml:space="preserve" style="white-space: pre" font-family="sans-serif">-Pipe_Vector : vector&lt;Pipe *&gt;</text><text x="159.40" y="429.50" font-size="14" fill="#000000" xml:space="preserve" style="white-space: pre" text-decoration="underline" font-family="sans-serif">+CPULocker : pthread_mutex_t</text><line x1="154.40" y1="437.50" x2="1029.60" y2="437.50" stroke="#181818" stroke-width="0.50"></line><text x="159.40" y="455.50" font-size="14" fill="#000000" xml:space="preserve" style="white-space: pre" font-family="sans-serif">-Kernel() «constructor»</text><text x="159.40" y="473.50" font-size="14" fill="#000000" xml:space="preserve" style="white-space: pre" font-family="sans-serif">-~Kernel() «destructor»</text><text x="159.40" y="491.50" font-size="14" fill="#000000" xml:space="preserve" style="white-space: pre" text-decoration="underline" font-family="sans-serif">-Bootstrap_Wrapper(context : void*) : void*</text><text x="159.40" y="509.50" font-size="14" fill="#000000" xml:space="preserve" style="white-space: pre" font-family="sans-serif">-Bootstrap(context : void*) : void</text><text x="159.40" y="527.50" font-size="14" fill="#000000" xml:space="preserve" style="white-space: pre" text-decoration="underline" font-family="sans-serif">+Get_Instance() : Kernel*</text><text x="159.40" y="545.50" font-size="14" fill="#000000" xml:space="preserve" style="white-space: pre" font-family="sans-serif">+Create_Task(newthread : uthread_t*, start_routine : void *(*start_routine)(void *), arg : void*) : int</text><text x="159.40" y="563.50" font-size="14" fill="#000000" xml:space="preserve" style="white-space: pre" font-family="sans-serif">+Join_Task(th : uthread_t, thread_return : void**) : int</text><text x="159.40" y="581.50" font-size="14" fill="#000000" xml:space="preserve" style="white-space: pre" font-family="sans-serif">+Create_Semaphore(name : const char*) Semaphore*</text><text x="159.40" y="599.50" font-size="14" fill="#000000" xml:space="preserve" style="white-space: pre" font-family="sans-serif">+Get_Scheduler() : Scheduler*</text><text x="159.40" y="617.50" font-size="14" fill="#000000" xml:space="preserve" style="white-space: pre" font-family="sans-serif">+Create_Pipe(id : int) : Pipe*</text><text x="159.40" y="635.50" font-size="14" fill="#000000" xml:space="preserve" style="white-space: pre" font-family="sans-serif">+Get_Pipe(id : int) : Pipe*</text></g><g class="entity" data-entity="Scheduler" data-qualified-name="Subsystems.Scheduler" id="ent0007" data-source-line="32"><rect x="298.80" y="1162.50" width="314.40" height="192" rx="2.50" ry="2.50" fill="#F1F1F1" stroke="#181818" stroke-width="0.50"></rect><circle cx="413.95" cy="1178.50" r="11" fill="#ADD1B2" stroke="#181818" stroke-width="1"></circle><text x="413.95" y="1178.50" font-family="monospace" font-size="17" fill="#000000" text-anchor="middle" dominant-baseline="central">C</text><text x="434.45" y="1183.50" font-size="14" fill="#000000" xml:space="preserve" style="white-space: pre" font-family="sans-serif">Scheduler</text><line x1="299.80" y1="1194.50" x2="612.20" y2="1194.50" stroke="#181818" stroke-width="0.50"></line><text x="304.80" y="1212.50" font-size="14" fill="#000000" xml:space="preserve" style="white-space: pre" font-family="sans-serif">-process_table : TCB*</text><text x="304.80" y="1230.50" font-size="14" fill="#000000" xml:space="preserve" style="white-space: pre" font-family="sans-serif">-current_task : int</text><text x="304.80" y="1248.50" font-size="14" fill="#000000" xml:space="preserve" style="white-space: pre" font-family="sans-serif">-current_quantum : long</text><text x="304.80" y="1266.50" font-size="14" fill="#000000" xml:space="preserve" style="white-space: pre" font-family="sans-serif">-next_available_task_id : int</text><text x="304.80" y="1284.50" font-size="14" fill="#000000" xml:space="preserve" style="white-space: pre" font-family="sans-serif">-TCBList : CircularLinkedList&lt;TCB *&gt;</text><line x1="299.80" y1="1292.50" x2="612.20" y2="1292.50" stroke="#181818" stroke-width="0.50"></line><text x="304.80" y="1310.50" font-size="14" fill="#000000" xml:space="preserve" style="white-space: pre" font-family="sans-serif">+yield()</text><text x="304.80" y="1328.50" font-size="14" fill="#000000" xml:space="preserve" style="white-space: pre" font-family="sans-serif">+start()</text><text x="304.80" y="1346.50" font-size="14" fill="#000000" xml:space="preserve" style="white-space: pre" font-family="sans-serif">+set_state(int, STATE)</text></g><g class="entity" data-entity="Semaphore" data-qualified-name="Subsystems.Semaphore" id="ent0008" data-source-line="42"><rect x="22.40" y="801.50" width="373.20" height="228" rx="2.50" ry="2.50" fill="#F1F1F1" stroke="#181818" stroke-width="0.50"></rect><circle cx="166.95" cy="817.50" r="11" fill="#ADD1B2" stroke="#181818" stroke-width="1"></circle><text x="166.95" y="817.50" font-family="monospace" font-size="17" fill="#000000" text-anchor="middle" dominant-baseline="central">C</text><text x="187.45" y="822.50" font-size="14" fill="#000000" xml:space="preserve" style="white-space: pre" font-family="sans-serif">Semaphore</text><line x1="23.40" y1="833.50" x2="394.60" y2="833.50" stroke="#181818" stroke-width="0.50"></line><text x="28.40" y="851.50" font-size="14" fill="#000000" xml:space="preserve" style="white-space: pre" font-family="sans-serif">-resource_name : string</text><text x="28.40" y="869.50" font-size="14" fill="#000000" xml:space="preserve" style="white-space: pre" font-family="sans-serif">-sema_value : int</text><text x="28.40" y="887.50" font-size="14" fill="#000000" xml:space="preserve" style="white-space: pre" font-family="sans-serif">-sema_queue : queue&lt;int&gt;</text><text x="28.40" y="905.50" font-size="14" fill="#000000" xml:space="preserve" style="white-space: pre" text-decoration="underline" font-family="sans-serif">-scheduler : Scheduler*</text><line x1="23.40" y1="913.50" x2="394.60" y2="913.50" stroke="#181818" stroke-width="0.50"></line><text x="28.40" y="931.50" font-size="14" fill="#000000" xml:space="preserve" style="white-space: pre" font-family="sans-serif">+Semaphore(name : const char*)«constructor»</text><text x="28.40" y="949.50" font-size="14" fill="#000000" xml:space="preserve" style="white-space: pre" font-family="sans-serif">+~Semaphore()«destructor»</text><text x="28.40" y="967.50" font-size="14" fill="#000000" xml:space="preserve" style="white-space: pre" text-decoration="underline" font-family="sans-serif">+set_scheduler(s : Scheduler*) : void</text><text x="28.40" y="985.50" font-size="14" fill="#000000" xml:space="preserve" style="white-space: pre" font-family="sans-serif">+down() : void</text><text x="28.40" y="1003.50" font-size="14" fill="#000000" xml:space="preserve" style="white-space: pre" font-family="sans-serif">+up() : void</text><text x="28.40" y="1021.50" font-size="14" fill="#000000" xml:space="preserve" style="white-space: pre" font-family="sans-serif">+dump() : string</text></g><g class="entity" data-entity="Pipe" data-qualified-name="Subsystems.Pipe" id="ent0009" data-source-line="54"><rect x="430.60" y="747.50" width="322.80" height="336" rx="2.50" ry="2.50" fill="#F1F1F1" stroke="#181818" stroke-width="0.50"></rect><circle cx="570.95" cy="763.50" r="11" fill="#ADD1B2" stroke="#181818" stroke-width="1"></circle><text x="570.95" y="763.50" font-family="monospace" font-size="17" fill="#000000" text-anchor="middle" dominant-baseline="central">C</text><text x="591.45" y="768.50" font-size="14" fill="#000000" xml:space="preserve" style="white-space: pre" font-family="sans-serif">Pipe</text><line x1="431.60" y1="779.50" x2="752.40" y2="779.50" stroke="#181818" stroke-width="0.50"></line><text x="436.60" y="797.50" font-size="14" fill="#000000" xml:space="preserve" style="white-space: pre" font-family="sans-serif">-buffer : char[32]</text><text x="436.60" y="815.50" font-size="14" fill="#000000" xml:space="preserve" style="white-space: pre" font-family="sans-serif">-read_ptr : int</text><text x="436.60" y="833.50" font-size="14" fill="#000000" xml:space="preserve" style="white-space: pre" font-family="sans-serif">-write_ptr : int</text><text x="436.60" y="851.50" font-size="14" fill="#000000" xml:space="preserve" style="white-space: pre" font-family="sans-serif">-count : int</text><text x="436.60" y="869.50" font-size="14" fill="#000000" xml:space="preserve" style="white-space: pre" font-family="sans-serif">-writer_task : int</text><text x="436.60" y="887.50" font-size="14" fill="#000000" xml:space="preserve" style="white-space: pre" font-family="sans-serif">-reader_task : int</text><text x="436.60" y="905.50" font-size="14" fill="#000000" xml:space="preserve" style="white-space: pre" font-family="sans-serif">+pfd : int</text><line x1="431.60" y1="913.50" x2="752.40" y2="913.50" stroke="#181818" stroke-width="0.50"></line><text x="436.60" y="931.50" font-size="14" fill="#000000" xml:space="preserve" style="white-space: pre" font-family="sans-serif">+open_for_write(task_id : int) : bool</text><text x="436.60" y="949.50" font-size="14" fill="#000000" xml:space="preserve" style="white-space: pre" font-family="sans-serif">+open_for_read(task_id : int) : bool</text><text x="436.60" y="967.50" font-size="14" fill="#000000" xml:space="preserve" style="white-space: pre" font-family="sans-serif">+close_write() : void</text><text x="436.60" y="985.50" font-size="14" fill="#000000" xml:space="preserve" style="white-space: pre" font-family="sans-serif">+close_read() : void</text><text x="436.60" y="1003.50" font-size="14" fill="#000000" xml:space="preserve" style="white-space: pre" font-family="sans-serif">+write(data : char) : int</text><text x="436.60" y="1021.50" font-size="14" fill="#000000" xml:space="preserve" style="white-space: pre" font-family="sans-serif">+read() : int</text><text x="436.60" y="1039.50" font-size="14" fill="#000000" xml:space="preserve" style="white-space: pre" font-family="sans-serif">+is_empty() : bool</text><text x="436.60" y="1057.50" font-size="14" fill="#000000" xml:space="preserve" style="white-space: pre" font-family="sans-serif">+reset() : void</text><text x="436.60" y="1075.50" font-size="14" fill="#000000" xml:space="preserve" style="white-space: pre" font-family="sans-serif">+dump() : string</text></g><g class="entity" data-entity="CircularLinkedList" data-qualified-name="Low-Level Structures.CircularLinkedList" id="ent0011" data-source-line="74"><rect x="88.20" y="1458.50" width="381.60" height="462" rx="2.50" ry="2.50" fill="#F1F1F1" stroke="#181818" stroke-width="0.50"></rect><circle cx="193.55" cy="1474.50" r="11" fill="#ADD1B2" stroke="#181818" stroke-width="1"></circle><text x="193.55" y="1474.50" font-family="monospace" font-size="17" fill="#000000" text-anchor="middle" dominant-baseline="central">C</text><text x="214.05" y="1479.50" font-size="14" fill="#000000" xml:space="preserve" style="white-space: pre" font-family="sans-serif">CircularLinkedList</text><rect x="463.60" y="1455.50" width="9.20" height="18" fill="#FFFFFF" stroke="#181818" stroke-width="1" stroke-dasharray="2,2"></rect><text x="464.60" y="1468.50" font-size="12" fill="#000000" xml:space="preserve" style="white-space: pre" font-style="italic" font-family="sans-serif">T</text><line x1="89.20" y1="1490.50" x2="468.80" y2="1490.50" stroke="#181818" stroke-width="0.50"></line><text x="94.20" y="1508.50" font-size="14" fill="#000000" xml:space="preserve" style="white-space: pre" font-family="sans-serif">-head : Node&lt;T&gt;*</text><text x="94.20" y="1526.50" font-size="14" fill="#000000" xml:space="preserve" style="white-space: pre" font-family="sans-serif">-tail : Node&lt;T&gt;*</text><text x="94.20" y="1544.50" font-size="14" fill="#000000" xml:space="preserve" style="white-space: pre" font-family="sans-serif">-empty : bool</text><text x="94.20" y="1562.50" font-size="14" fill="#000000" xml:space="preserve" style="white-space: pre" font-family="sans-serif">-length : int</text><text x="94.20" y="1580.50" font-size="14" fill="#000000" xml:space="preserve" style="white-space: pre" font-family="sans-serif">-ListLocker : mutex</text><line x1="89.20" y1="1588.50" x2="468.80" y2="1588.50" stroke="#181818" stroke-width="0.50"></line><text x="94.20" y="1606.50" font-size="14" fill="#000000" xml:space="preserve" style="white-space: pre" font-family="sans-serif">+CirculuarLinkedList() «constructor»</text><text x="94.20" y="1624.50" font-size="14" fill="#000000" xml:space="preserve" style="white-space: pre" font-family="sans-serif">+~CircularLinkedList() «destructor»</text><text x="94.20" y="1642.50" font-size="14" fill="#000000" xml:space="preserve" style="white-space: pre" font-family="sans-serif">+insert_front(value : T) : void</text><text x="94.20" y="1660.50" font-size="14" fill="#000000" xml:space="preserve" style="white-space: pre" font-family="sans-serif">+insert_at(value : T, position : int) : void</text><text x="94.20" y="1678.50" font-size="14" fill="#000000" xml:space="preserve" style="white-space: pre" font-family="sans-serif">+insert_end(value : T) : void</text><text x="94.20" y="1696.50" font-size="14" fill="#000000" xml:space="preserve" style="white-space: pre" font-family="sans-serif">+remove_front() : void</text><text x="94.20" y="1714.50" font-size="14" fill="#000000" xml:space="preserve" style="white-space: pre" font-family="sans-serif">+remove_end() : void</text><text x="94.20" y="1732.50" font-size="14" fill="#000000" xml:space="preserve" style="white-space: pre" font-family="sans-serif">+is_empty() : bool</text><text x="94.20" y="1750.50" font-size="14" fill="#000000" xml:space="preserve" style="white-space: pre" font-family="sans-serif">+size() : int</text><text x="94.20" y="1768.50" font-size="14" fill="#000000" xml:space="preserve" style="white-space: pre" font-family="sans-serif">+advance() : void</text><text x="94.20" y="1786.50" font-size="14" fill="#000000" xml:space="preserve" style="white-space: pre" font-family="sans-serif">+get_front() : T</text><text x="94.20" y="1804.50" font-size="14" fill="#000000" xml:space="preserve" style="white-space: pre" font-family="sans-serif">+get_pos(key : T) : int</text><text x="94.20" y="1822.50" font-size="14" fill="#000000" xml:space="preserve" style="white-space: pre" font-family="sans-serif">+get_next() : T</text><text x="94.20" y="1840.50" font-size="14" fill="#000000" xml:space="preserve" style="white-space: pre" font-family="sans-serif">+get_end() : T</text><text x="94.20" y="1858.50" font-size="14" fill="#000000" xml:space="preserve" style="white-space: pre" font-family="sans-serif">+move_to_key(key : T) : void</text><text x="94.20" y="1876.50" font-size="14" fill="#000000" xml:space="preserve" style="white-space: pre" font-family="sans-serif">+set_value(value : T) : void</text><text x="94.20" y="1894.50" font-size="14" fill="#000000" xml:space="preserve" style="white-space: pre" font-family="sans-serif">+set_nextvalue(value : T) : void</text><text x="94.20" y="1912.50" font-size="14" fill="#000000" xml:space="preserve" style="white-space: pre" font-family="sans-serif">+dump() : void</text></g><g class="entity" data-entity="TCB" data-qualified-name="Low-Level Structures.TCB" id="ent0012" data-source-line="99"><rect x="505.20" y="1620.50" width="255.60" height="138" rx="2.50" ry="2.50" fill="#F1F1F1" stroke="#181818" stroke-width="0.50"></rect><circle cx="616.15" cy="1636.50" r="11" fill="#F1F1F1" stroke="#181818" stroke-width="1"></circle><text x="616.15" y="1636.50" font-family="monospace" font-size="17" fill="#000000" text-anchor="middle" dominant-baseline="central">S</text><text x="636.65" y="1641.50" font-size="14" fill="#000000" xml:space="preserve" style="white-space: pre" font-family="sans-serif">TCB</text><line x1="506.20" y1="1652.50" x2="759.80" y2="1652.50" stroke="#181818" stroke-width="0.50"></line><text x="511.20" y="1670.50" font-size="14" fill="#000000" xml:space="preserve" style="white-space: pre" font-family="sans-serif">+task_id : int</text><text x="511.20" y="1688.50" font-size="14" fill="#000000" xml:space="preserve" style="white-space: pre" font-family="sans-serif">+state : STATE</text><text x="511.20" y="1706.50" font-size="14" fill="#000000" xml:space="preserve" style="white-space: pre" font-family="sans-serif">+start_time : clock_t</text><text x="511.20" y="1724.50" font-size="14" fill="#000000" xml:space="preserve" style="white-space: pre" font-family="sans-serif">+thread_id : pthread_t</text><text x="511.20" y="1742.50" font-size="14" fill="#000000" xml:space="preserve" style="white-space: pre" font-family="sans-serif">+thread_cond : pthread_cond_t</text><line x1="506.20" y1="1750.50" x2="759.80" y2="1750.50" stroke="#181818" stroke-width="0.50"></line></g><g class="entity" data-entity="Node" data-qualified-name="Low-Level Structures.Node" id="ent0013" data-source-line="106"><rect x="205.80" y="2023.50" width="146.40" height="84" rx="2.50" ry="2.50" fill="#F1F1F1" stroke="#181818" stroke-width="0.50"></rect><circle cx="252.35" cy="2039.50" r="11" fill="#ADD1B2" stroke="#181818" stroke-width="1"></circle><text x="252.35" y="2039.50" font-family="monospace" font-size="17" fill="#000000" text-anchor="middle" dominant-baseline="central">C</text><text x="272.85" y="2044.50" font-size="14" fill="#000000" xml:space="preserve" style="white-space: pre" font-family="sans-serif">Node</text><rect x="346.00" y="2020.50" width="9.20" height="18" fill="#FFFFFF" stroke="#181818" stroke-width="1" stroke-dasharray="2,2"></rect><text x="347.00" y="2033.50" font-size="12" fill="#000000" xml:space="preserve" style="white-space: pre" font-style="italic" font-family="sans-serif">T</text><line x1="206.80" y1="2055.50" x2="351.20" y2="2055.50" stroke="#181818" stroke-width="0.50"></line><text x="211.80" y="2073.50" font-size="14" fill="#000000" xml:space="preserve" style="white-space: pre" font-family="sans-serif">+data : T</text><text x="211.80" y="2091.50" font-size="14" fill="#000000" xml:space="preserve" style="white-space: pre" font-family="sans-serif">+next : Node&lt;T&gt;*</text><line x1="206.80" y1="2099.50" x2="351.20" y2="2099.50" stroke="#181818" stroke-width="0.50"></line></g><g class="entity" data-entity="STATE" data-qualified-name="Low-Level Structures.STATE" id="ent0014" data-source-line="110"><rect x="572.20" y="1999.50" width="121.60" height="132" rx="2.50" ry="2.50" fill="#F1F1F1" stroke="#181818" stroke-width="0.50"></rect><circle cx="587.20" cy="2021.50" r="11" fill="#EB937F" stroke="#181818" stroke-width="1"></circle><text x="587.20" y="2021.50" font-family="monospace" font-size="17" fill="#000000" text-anchor="middle" dominant-baseline="central">E</text><text x="599.20" y="2016.50" font-size="12" fill="#000000" xml:space="preserve" style="white-space: pre" font-style="italic" font-family="sans-serif">«enumeration»</text><text x="625.00" y="2034.50" font-size="14" fill="#000000" xml:space="preserve" style="white-space: pre" font-family="sans-serif">STATE</text><line x1="573.20" y1="2043.50" x2="692.80" y2="2043.50" stroke="#181818" stroke-width="0.50"></line><text x="578.20" y="2061.50" font-size="14" fill="#000000" xml:space="preserve" style="white-space: pre" font-family="sans-serif">READY</text><text x="578.20" y="2079.50" font-size="14" fill="#000000" xml:space="preserve" style="white-space: pre" font-family="sans-serif">RUNNING</text><text x="578.20" y="2097.50" font-size="14" fill="#000000" xml:space="preserve" style="white-space: pre" font-family="sans-serif">BLOCKED</text><text x="578.20" y="2115.50" font-size="14" fill="#000000" xml:space="preserve" style="white-space: pre" font-family="sans-serif">DEAD</text><line x1="573.20" y1="2123.50" x2="692.80" y2="2123.50" stroke="#181818" stroke-width="0.50"></line></g><g class="link" data-entity-1="uthread" data-entity-2="Kernel" data-entity-1-uid="ent0003" data-entity-2-uid="ent0005" id="lnk15" data-source-line="118" data-link-type="dependency"><path d="M592,175.92 C592,205.5 592,236.07 592,273.02" fill="none" stroke="#181818" stroke-width="1" stroke-dasharray="7,7"></path><polygon points="592,279.02 596,270.02 592,274.02 588,270.02 592,279.02" fill="#181818" stroke="#181818" stroke-width="1"></polygon><text x="593" y="221.50" font-size="13" fill="#000000" xml:space="preserve" style="white-space: pre" font-family="sans-serif">delegates to</text></g><g class="link" data-entity-1="Kernel" data-entity-2="Scheduler" data-entity-1-uid="ent0005" data-entity-2-uid="ent0007" id="lnk16" data-source-line="119" data-link-type="composition"><path d="M750.6875,654.4011 C761.1675,673.3511 764.37,682.52 771,702.5 C824.33,863.22 857.05,937.66 771,1083.5 C736.31,1142.29 673.87,1182.59 613.67,1209.47" fill="none" stroke="#181818" stroke-width="1"></path><polygon points="744.88,643.90 744.28,651.09 750.69,654.40 751.28,647.21 744.88,643.90" fill="#181818" stroke="#181818" stroke-width="1"></polygon><text x="824.97" y="920" font-size="13" fill="#000000" xml:space="preserve" style="white-space: pre" font-family="sans-serif">owns and uses</text></g><g class="link" data-entity-1="Kernel" data-entity-2="Semaphore" data-entity-1-uid="ent0005" data-entity-2-uid="ent0008" id="lnk17" data-source-line="120" data-link-type="aggregation"><path d="M430.6717,652.8947 C385.6117,706.0647 345.4,753.53 305.03,801.17" fill="none" stroke="#181818" stroke-width="1"></path><polygon points="438.43,643.74 431.50,645.73 430.67,652.89 437.60,650.90 438.43,643.74" fill="#00000000" stroke="#181818" stroke-width="1"></polygon><text x="401.50" y="689.50" font-size="13" fill="#000000" xml:space="preserve" style="white-space: pre" font-family="sans-serif">manages many</text></g><g class="link" data-entity-1="Kernel" data-entity-2="Pipe" data-entity-1-uid="ent0005" data-entity-2-uid="ent0009" id="lnk18" data-source-line="121" data-link-type="aggregation"><path d="M592,655.74 C592,689.88 592,713.44 592,747.13" fill="none" stroke="#181818" stroke-width="1"></path><polygon points="592,643.74 588,649.74 592,655.74 596,649.74 592,643.74" fill="#00000000" stroke="#181818" stroke-width="1"></polygon><text x="593" y="689.50" font-size="13" fill="#000000" xml:space="preserve" style="white-space: pre" font-family="sans-serif">manages many</text></g><g class="link" data-entity-1="Scheduler" data-entity-2="CircularLinkedList" data-entity-1-uid="ent0007" data-entity-2-uid="ent0011" id="lnk19" data-source-line="122" data-link-type="composition"><path d="M398.5941,1365.6134 C393.3541,1376.1934 393.6,1376.13 389,1386.5 C378.76,1409.58 368.71,1433.94 359.09,1458.4" fill="none" stroke="#181818" stroke-width="1"></path><polygon points="403.92,1354.86 397.67,1358.46 398.59,1365.61 404.84,1362.01 403.92,1354.86" fill="#181818" stroke="#181818" stroke-width="1"></polygon><text x="390" y="1400.50" font-size="13" fill="#000000" xml:space="preserve" style="white-space: pre" font-family="sans-serif">uses for storage</text></g><g class="link" data-entity-1="CircularLinkedList" data-entity-2="Node" data-entity-1-uid="ent0011" data-entity-2-uid="ent0013" id="lnk20" data-source-line="123" data-link-type="composition"><path d="M279,1932.97 C279,1972.21 279,1996.74 279,2023.13" fill="none" stroke="#181818" stroke-width="1"></path><polygon points="279,1920.97 275,1926.97 279,1932.97 283,1926.97 279,1920.97" fill="#181818" stroke="#181818" stroke-width="1"></polygon><text x="280" y="1964.50" font-size="13" fill="#000000" xml:space="preserve" style="white-space: pre" font-family="sans-serif">composed of</text></g><g class="link" data-entity-1="Scheduler" data-entity-2="TCB" data-entity-1-uid="ent0007" data-entity-2-uid="ent0012" id="lnk21" data-source-line="124" data-link-type="composition"><path d="M509.6414,1365.5628 C514.6914,1376.2128 514.48,1376.12 519,1386.5 C553.4,1465.5 587.6,1558.54 609.43,1620.26" fill="none" stroke="#181818" stroke-width="1"></path><polygon points="504.50,1354.72 503.46,1361.86 509.64,1365.56 510.68,1358.43 504.50,1354.72" fill="#181818" stroke="#181818" stroke-width="1"></polygon><text x="526.87" y="1400.50" font-size="13" fill="#000000" xml:space="preserve" style="white-space: pre" font-family="sans-serif">manages many</text></g><g class="link" data-entity-1="Semaphore" data-entity-2="Scheduler" data-entity-1-uid="ent0008" data-entity-2-uid="ent0007" id="lnk22" data-source-line="125" data-link-type="dependency"><path d="M290.9,1029.57 C322.01,1072.52 353.58,1116.101 383.39,1157.251" fill="none" stroke="#181818" stroke-width="1" stroke-dasharray="7,7"></path><polygon points="386.91,1162.11 384.87,1152.47 383.98,1158.06 378.39,1157.17 386.91,1162.11" fill="#181818" stroke="#181818" stroke-width="1"></polygon><text x="362.89" y="1127.50" font-size="13" fill="#000000" xml:space="preserve" style="white-space: pre" font-family="sans-serif">calls set_state</text></g><g class="link" data-entity-1="TCB" data-entity-2="STATE" data-entity-1-uid="ent0012" data-entity-2-uid="ent0014" id="lnk23" data-source-line="126" data-link-type="dependency"><path d="M633,1758.66 C633,1827.03 633,1925.59 633,1993" fill="none" stroke="#181818" stroke-width="1" stroke-dasharray="7,7"></path><polygon points="633,1999 637,1990 633,1994 629,1990 633,1999" fill="#181818" stroke="#181818" stroke-width="1"></polygon><text x="634" y="1964.50" font-size="13" fill="#000000" xml:space="preserve" style="white-space: pre" font-family="sans-serif">uses</text></g></g></svg>